<svg width="64" height="64" viewBox="0 0 64 64" fill="none" xmlns="http://www.w3.org/2000/svg">
<rect width="64" height="64" rx="8" fill="#DBF9E3"/>
<path d="M45.3367 12.0467H21.7817C17.9803 11.6061 14.5414 14.3306 14.1008 18.1321C14.0393 18.6622 14.0393 19.1976 14.1008 19.7277V44.3068C13.8678 48.3159 16.9289 51.7547 20.9379 51.9878C21.219 52.0041 21.5007 52.0041 21.7817 51.9878H45.3367C47.8805 51.9844 49.9419 49.923 49.9453 47.3792V16.6553C49.9419 14.1115 47.8805 12.0501 45.3367 12.0467ZM21.7817 15.1191H45.3367C46.1846 15.1202 46.8717 15.8074 46.8729 16.6553V35.0896C46.8717 35.9376 46.1846 36.6247 45.3367 36.6258H21.7817C20.1438 36.5926 18.5351 37.0631 17.1731 37.9736V19.7277C17.1731 16.4976 18.5516 15.1191 21.7817 15.1191ZM45.3367 48.9154H21.7817C19.4536 49.1325 17.3903 47.4212 17.1732 45.093C17.1488 44.8315 17.1488 44.5683 17.1732 44.3068C16.956 41.9786 18.6674 39.9153 20.9955 39.6982C21.257 39.6738 21.5202 39.6738 21.7817 39.6982H45.3367C45.8612 39.693 46.3809 39.5974 46.8729 39.4155V47.3792C46.8717 48.2271 46.1846 48.9142 45.3367 48.9154ZM26.3903 21.776C26.3903 20.9275 27.0781 20.2398 27.9265 20.2398H36.1195C36.9679 20.2398 37.6557 20.9275 37.6557 21.776C37.6557 22.6244 36.9679 23.3121 36.1195 23.3121H27.9265C27.0781 23.3121 26.3903 22.6244 26.3903 21.776Z" fill="#106149"/>
</svg>
