<svg width="64" height="64" viewBox="0 0 64 64" fill="none" xmlns="http://www.w3.org/2000/svg">
<rect width="64" height="64" rx="8" fill="#F9DBDB"/>
<path d="M30.6323 41.3157C30.6323 42.0857 30.008 42.7099 29.238 42.7099H19.0136C15.5634 43.1098 12.4423 40.6371 12.0424 37.1869C11.9867 36.7058 11.9867 36.2198 12.0424 35.7387V20.8668C11.6425 17.4167 14.1153 14.2955 17.5655 13.8957C18.0466 13.8399 18.5325 13.8399 19.0136 13.8957H41.3214C44.7716 13.4958 47.8927 15.9685 48.2926 19.4187C48.3484 19.8998 48.3484 20.3857 48.2926 20.8669C48.2926 21.6369 47.6684 22.2611 46.8984 22.2611C46.1284 22.2611 45.5041 21.6369 45.5041 20.8669C45.5041 17.9352 44.253 16.6841 41.3214 16.6841H19.0136C16.082 16.6841 14.8309 17.9352 14.8309 20.8669V35.7387C14.8309 38.6703 16.082 39.9214 19.0136 39.9214H29.238C30.008 39.9214 30.6323 40.5457 30.6323 41.3157C30.6323 41.3157 30.6323 41.3157 30.6323 41.3157ZM32.0265 23.1906H20.8726C20.1026 23.1906 19.4783 23.8148 19.4783 24.5848C19.4783 25.3548 20.1026 25.9791 20.8726 25.9791H32.0265C32.7965 25.9791 33.4207 25.3548 33.4207 24.5848C33.4207 23.8148 32.7965 23.1906 32.0265 23.1906ZM26.4495 33.415C27.2196 33.415 27.8438 32.7908 27.8438 32.0208C27.8438 31.2507 27.2196 30.6265 26.4495 30.6265H20.8726C20.1026 30.6265 19.4783 31.2507 19.4783 32.0208C19.4783 32.7908 20.1026 33.415 20.8726 33.415H26.4495ZM50.8152 37.3821L50.4304 37.7836L50.4453 38.3023C50.4399 39.8115 49.599 41.1936 48.261 41.892L50.1088 48.3742C50.3177 49.1154 49.8863 49.8855 49.1451 50.0944C48.8497 50.1777 48.535 50.1612 48.2498 50.0473L44.8163 48.6717C43.3742 48.0944 41.7652 48.0944 40.3231 48.6717L36.8933 50.0455C36.1765 50.3295 35.3651 49.9786 35.0811 49.2618C34.9689 48.9784 34.9524 48.666 35.0343 48.3724L36.8822 41.8901C35.5455 41.1906 34.7055 39.809 34.6997 38.3004V37.7427L34.3279 37.3839C32.7447 35.7892 32.7447 33.2158 34.3279 31.6211L34.7239 31.2251L34.709 30.7083C34.715 28.4677 36.5228 26.6491 38.7634 26.6297H39.3211L39.6761 26.2579C41.2892 24.7197 43.826 24.7197 45.439 26.2579L45.8331 26.6502L46.3536 26.6371C48.5979 26.6442 50.4172 28.4585 50.4304 30.7027V31.2604L50.8022 31.6192C52.3942 33.2083 52.4 35.7859 50.8152 37.3821ZM46.6362 46.4L45.5618 42.63L45.4428 42.7545C43.8515 44.3459 41.2714 44.3459 39.68 42.7546C39.68 42.7546 39.68 42.7546 39.68 42.7546L39.5609 42.6356L38.4883 46.4L39.2802 46.0803C41.387 45.2372 43.7375 45.2372 45.8443 46.0803L46.6362 46.4ZM48.8447 33.5879L48.4506 33.1938C47.9358 32.6807 47.6468 31.9835 47.6475 31.2567V30.699C47.6475 29.9872 47.0711 29.4099 46.3593 29.4089H45.8016C45.0735 29.4111 44.3751 29.1211 43.8626 28.6039L43.4723 28.2136C42.9622 27.7239 42.1568 27.7239 41.6467 28.2136L41.2545 28.6058C40.7415 29.1208 40.0443 29.4098 39.3174 29.4089H38.7597C38.0479 29.4099 37.4715 29.9872 37.4715 30.699V31.2567C37.4742 31.9823 37.1871 32.6789 36.674 33.1919L36.2761 33.5879C35.7789 34.0941 35.7789 34.9053 36.2761 35.4115L36.6721 35.8075C37.1879 36.3184 37.4772 37.0149 37.4752 37.7408V38.2985C37.4752 39.0103 38.0517 39.5877 38.7635 39.5887H39.3211C40.0463 39.5873 40.7421 39.875 41.2545 40.388L41.6523 40.7859C42.1619 41.2731 42.9646 41.2731 43.4741 40.7859L43.8719 40.3899C44.3833 39.8753 45.0798 39.5873 45.8053 39.5905H46.363C47.0748 39.5895 47.6513 39.0122 47.6513 38.3004V37.7427C47.6496 37.0181 47.9373 36.3227 48.4506 35.8112L48.8484 35.4134C49.3458 34.9059 49.3442 34.0933 48.8447 33.5879ZM47.0527 34.4988C47.0535 36.9803 45.0426 38.9929 42.561 38.9938C40.0795 38.9947 38.0672 36.9837 38.0663 34.5022C38.0655 32.0207 40.0764 30.0083 42.558 30.0075C42.5592 30.0075 42.5604 30.0075 42.5617 30.0075C45.0408 30.0107 47.0496 32.0197 47.0527 34.4988ZM44.2642 34.4988C44.2642 33.5573 43.501 32.7941 42.5595 32.7941C41.618 32.7941 40.8548 33.5573 40.8548 34.4988C40.8548 35.4403 41.618 36.2035 42.5595 36.2035C42.5589 36.2035 42.5601 36.2035 42.5595 36.2035C43.5002 36.2024 44.2642 35.4395 44.2642 34.4988Z" fill="#611010"/>
</svg>
