<svg width="64" height="64" viewBox="0 0 64 64" fill="none" xmlns="http://www.w3.org/2000/svg">
<rect width="64" height="64" rx="8" fill="#DBEBF9"/>
<path d="M35.4908 27.9027C35.4908 28.7507 34.821 29.4382 33.9947 29.4382H30.0052C29.179 29.4382 28.5092 28.7507 28.5092 27.9027C28.5092 27.0546 29.179 26.3671 30.0052 26.3671H33.9947C34.821 26.3671 35.4908 27.0546 35.4908 27.9027ZM51.4487 36.092V44.2814C51.5933 46.1117 50.265 47.7158 48.4818 47.8643C48.3074 47.8788 48.1322 47.8788 47.9579 47.8643H46.8329C45.6721 50.6258 42.8917 52.2868 39.9789 51.959H24.021C21.1082 52.2868 18.3279 50.6258 17.1671 47.8643H16.0421C14.2589 48.0128 12.696 46.6494 12.5513 44.8191C12.5372 44.6402 12.5372 44.4604 12.5513 44.2814V36.092C12.4066 34.2618 13.735 32.6577 15.5182 32.5092C15.6925 32.4947 15.8677 32.4947 16.0421 32.5092H16.5408V29.95C16.2399 24.6822 19.6325 19.9397 24.6195 18.6568C25.1482 14.4732 28.8812 11.5216 32.9574 12.0643C36.3083 12.5105 38.9458 15.2176 39.3805 18.6568C44.3675 19.9397 47.7601 24.6822 47.4592 29.95V32.5092H47.9579C49.7411 32.3607 51.304 33.7241 51.4487 35.5543C51.4628 35.7333 51.4628 35.9131 51.4487 36.092ZM27.7811 18.1982C27.8609 18.1982 27.9307 18.1778 28.0105 18.1778H35.9895C36.0692 18.1778 36.1391 18.1962 36.2188 18.1982C35.4195 15.8068 32.8827 14.5332 30.5526 15.3536C29.2506 15.8121 28.2278 16.8619 27.7811 18.1982ZM16.5767 44.7932C16.5767 44.6192 16.5408 44.4616 16.5408 44.2814V35.5802H16.0421C15.8895 35.5684 15.7362 35.5915 15.5933 35.6478C15.5561 35.7927 15.5393 35.9423 15.5434 36.092V44.2814C15.5316 44.4381 15.5541 44.5955 15.6092 44.7421C15.7504 44.7804 15.8962 44.7976 16.0421 44.7932H16.5767ZM38.4829 37.1157C38.4829 35.9098 38.1617 35.5802 36.9868 35.5802H27.0131C25.8382 35.5802 25.5171 35.9098 25.5171 37.1157V48.8879H38.4829V37.1157ZM44.4671 44.2814V29.95C44.773 25.4585 41.4734 21.5628 37.0973 21.2488C36.7285 21.2223 36.3583 21.2223 35.9895 21.2488H28.0105C23.6344 20.9348 19.8388 24.3214 19.5329 28.8129C19.5071 29.1915 19.5071 29.5714 19.5329 29.95V44.2814C19.5329 46.943 20.4584 48.3208 22.525 48.7364V37.1157C22.3135 34.7886 23.9801 32.7262 26.2474 32.5092C26.5021 32.4848 26.7585 32.4848 27.0131 32.5092H36.9868C39.2541 32.2922 41.2635 34.0027 41.475 36.3298C41.4987 36.5912 41.4987 36.8543 41.475 37.1157V48.7364C43.5415 48.3208 44.4671 46.943 44.4671 44.2814ZM48.4566 36.092C48.4683 35.9354 48.4458 35.778 48.3907 35.6314C48.2496 35.5931 48.1038 35.5758 47.9579 35.5802H47.4592V44.2814C47.4592 44.4616 47.4293 44.6192 47.4233 44.7932H47.9579C48.1105 44.8051 48.2638 44.782 48.4067 44.7257C48.4439 44.5808 48.4606 44.4312 48.4566 44.2814V36.092Z" fill="#103B61"/>
</svg>
